<svg width="343" height="99" viewBox="0 0 343 99" fill="none" xmlns="http://www.w3.org/2000/svg">
<path d="M20.6341 4.46405C20.6341 3.15414 19.5759 2.0959 18.266 2.0959H2.36815C1.05824 2.09287 0 3.15414 0 4.46405V70.378C0 85.7937 12.4987 98.2924 27.9144 98.2924H64.0976C65.4076 98.2924 66.4658 97.2342 66.4658 95.9243V80.0204C66.4658 78.7105 65.4076 77.6522 64.0976 77.6522H27.9144C23.8937 77.6522 20.6341 74.3926 20.6341 70.3719V4.46405Z" fill="white"/>
<path d="M234.265 78.0525V60.1504H268.392V60.1626C268.577 60.1626 268.753 60.1504 268.932 60.1504H274.717C279.457 60.1504 283.595 63.7375 283.914 68.489C284.263 73.7013 280.142 78.0525 275.036 78.0525H234.265ZM268.098 22.5572C272.607 22.5572 276.555 25.9472 276.897 30.4622C277.279 35.4047 273.462 39.5588 268.656 39.7104H234.259V22.5572H268.098ZM293.138 46.0568C296.015 41.2447 297.556 35.5259 297.207 29.4373C296.325 13.9882 283.186 2.12021 267.798 2.12021L220.517 2.09293C216.717 2.09293 213.631 5.19183 213.631 9.00937V91.5367C213.631 95.3603 216.711 98.4532 220.517 98.4532H233.649V98.4804H274.478C290.642 98.4804 304.163 85.5208 304.263 69.2622C304.314 59.8624 299.951 51.4692 293.147 46.0477L293.138 46.0568Z" fill="white"/>
<path d="M137.113 23.6511L151.285 59.143C146.94 60.2831 142.446 60.8744 137.837 60.8744C132.84 60.8744 127.88 60.1436 123.107 58.767L137.107 23.6511H137.113ZM106.196 96.6453L114.635 77.7486C122.091 80.2168 129.939 81.4994 137.837 81.4994C145.275 81.4994 152.701 80.3533 159.775 78.1549L168.029 96.6453C168.523 97.7459 169.615 98.4555 170.819 98.4555H187.814C189.512 98.4555 190.652 96.7059 189.955 95.1504L151.701 9.45743C149.132 3.71141 143.408 0 137.116 0C130.824 0 125.096 3.71141 122.531 9.46652L84.2676 95.1595C83.5762 96.7119 84.7073 98.4646 86.4083 98.4646H103.404C104.608 98.4646 105.702 97.755 106.193 96.6544L106.199 96.6483L106.196 96.6453Z" fill="white"/>
<path d="M336.056 78.052H328.035C324.663 78.052 321.929 80.7861 321.929 84.1588V92.179C321.929 95.5517 324.663 98.2859 328.035 98.2859H336.056C339.428 98.2859 342.163 95.5517 342.163 92.179V84.1588C342.163 80.7861 339.428 78.052 336.056 78.052Z" fill="#416EF5"/>
</svg>
